# xmcd
#
# Track frame offsets: 
#        150
#        16320
#        44870
#        61425
#
# Disc length: 1060 seconds
#
# Revision: 0
# Processed by: cddbd v1.5.2PL0 Copyright (c) Steve Scherf et al.
# Submitted via: ExactAudioCopy v1.0b1
#
DISCID=34042204
DTITLE=Maxima - Move Your Body CDM
DYEAR=1994
DGENRE=Eurodance
TTITLE0=Move Your Body (Radio Mix)
TTITLE1=Move Your Body (Club Mix)
TTITLE2=Maxima Overture
TTITLE3=Maximum Capacity
EXTD=
EXTT0=
EXTT1=
EXTT2=
EXTT3=
PLAYORDER=
